<svg width="57" height="38" viewBox="0 0 57 38" fill="none" xmlns="http://www.w3.org/2000/svg">
<rect x="19" width="38" height="38" rx="19" fill="#DDDDDD"/>
<rect width="38" height="38" rx="19" fill="#15131B"/>
<path d="M25.9375 16.8625C24.205 14.14 21.67 12.5725 19 12.5725C17.665 12.5725 16.3675 12.9625 15.1825 13.69C13.9975 14.425 12.9325 15.4975 12.0625 16.8625C11.3125 18.04 11.3125 19.9525 12.0625 21.13C13.795 23.86 16.33 25.42 19 25.42C20.335 25.42 21.6325 25.03 22.8175 24.3025C24.0025 23.5675 25.0675 22.495 25.9375 21.13C26.6875 19.96 26.6875 18.04 25.9375 16.8625ZM19 22.03C17.32 22.03 15.97 20.6725 15.97 19C15.97 17.3275 17.32 15.97 19 15.97C20.68 15.97 22.03 17.3275 22.03 19C22.03 20.6725 20.68 22.03 19 22.03Z" fill="white"/>
<path d="M18.9998 16.855C17.8223 16.855 16.8623 17.815 16.8623 19C16.8623 20.1775 17.8223 21.1375 18.9998 21.1375C20.1773 21.1375 21.1448 20.1775 21.1448 19C21.1448 17.8225 20.1773 16.855 18.9998 16.855Z" fill="white"/>
</svg>
