<svg width="38" height="38" viewBox="0 0 38 38" fill="none" xmlns="http://www.w3.org/2000/svg">
<rect width="38" height="38" rx="6" fill="#FD6900"/>
<path d="M26.1702 18.055L25.1502 16.87C24.9552 16.645 24.7977 16.225 24.7977 15.925V14.65C24.7977 13.855 24.1452 13.2025 23.3502 13.2025H22.0752C21.7827 13.2025 21.3552 13.045 21.1302 12.85L19.9452 11.83C19.4277 11.3875 18.5802 11.3875 18.0552 11.83L16.8777 12.8575C16.6527 13.045 16.2252 13.2025 15.9327 13.2025H14.6352C13.8402 13.2025 13.1877 13.855 13.1877 14.65V15.9325C13.1877 16.225 13.0302 16.645 12.8427 16.87L11.8302 18.0625C11.3952 18.58 11.3952 19.42 11.8302 19.9375L12.8427 21.13C13.0302 21.355 13.1877 21.775 13.1877 22.0675V23.35C13.1877 24.145 13.8402 24.7975 14.6352 24.7975H15.9327C16.2252 24.7975 16.6527 24.955 16.8777 25.15L18.0627 26.17C18.5802 26.6125 19.4277 26.6125 19.9527 26.17L21.1377 25.15C21.3627 24.955 21.7827 24.7975 22.0827 24.7975H23.3577C24.1527 24.7975 24.8052 24.145 24.8052 23.35V22.075C24.8052 21.7825 24.9627 21.355 25.1577 21.13L26.1777 19.945C26.6127 19.4275 26.6127 18.5725 26.1702 18.055ZM22.1202 17.5825L18.4977 21.205C18.3927 21.31 18.2502 21.37 18.1002 21.37C17.9502 21.37 17.8077 21.31 17.7027 21.205L15.8877 19.39C15.6702 19.1725 15.6702 18.8125 15.8877 18.595C16.1052 18.3775 16.4652 18.3775 16.6827 18.595L18.1002 20.0125L21.3252 16.7875C21.5427 16.57 21.9027 16.57 22.1202 16.7875C22.3377 17.005 22.3377 17.365 22.1202 17.5825Z" fill="white"/>
</svg>