<svg width="57" height="38" viewBox="0 0 57 38" fill="none" xmlns="http://www.w3.org/2000/svg">
<rect x="19" width="38" height="38" rx="19" fill="#DDDDDD"/>
<rect width="38" height="38" rx="19" fill="#15131B"/>
<path d="M18.4375 23.6875H16.75C15.925 23.6875 15.25 24.3625 15.25 25.1875V25.375H14.5C14.1925 25.375 13.9375 25.63 13.9375 25.9375C13.9375 26.245 14.1925 26.5 14.5 26.5H23.5C23.8075 26.5 24.0625 26.245 24.0625 25.9375C24.0625 25.63 23.8075 25.375 23.5 25.375H22.75V25.1875C22.75 24.3625 22.075 23.6875 21.25 23.6875H19.5625V21.97C19.375 21.9925 19.1875 22 19 22C18.8125 22 18.625 21.9925 18.4375 21.97V23.6875Z" fill="white"/>
<path d="M23.86 18.73C24.355 18.5425 24.79 18.235 25.135 17.89C25.8325 17.1175 26.29 16.195 26.29 15.115C26.29 14.035 25.4425 13.1875 24.3625 13.1875H23.9425C23.455 12.19 22.435 11.5 21.25 11.5H16.75C15.565 11.5 14.545 12.19 14.0575 13.1875H13.6375C12.5575 13.1875 11.71 14.035 11.71 15.115C11.71 16.195 12.1675 17.1175 12.865 17.89C13.21 18.235 13.645 18.5425 14.14 18.73C14.92 20.65 16.795 22 19 22C21.205 22 23.08 20.65 23.86 18.73ZM21.13 16.3375L20.665 16.9075C20.59 16.99 20.5375 17.155 20.545 17.2675L20.59 18.0025C20.62 18.4525 20.2975 18.685 19.8775 18.52L19.195 18.25C19.09 18.2125 18.91 18.2125 18.805 18.25L18.1225 18.52C17.7025 18.685 17.38 18.4525 17.41 18.0025L17.455 17.2675C17.4625 17.155 17.41 16.99 17.335 16.9075L16.87 16.3375C16.5775 15.9925 16.705 15.61 17.14 15.4975L17.8525 15.3175C17.965 15.2875 18.1 15.1825 18.16 15.085L18.5575 14.47C18.805 14.0875 19.195 14.0875 19.4425 14.47L19.84 15.085C19.9 15.1825 20.035 15.2875 20.1475 15.3175L20.86 15.4975C21.295 15.61 21.4225 15.9925 21.13 16.3375Z" fill="white"/>
</svg>
