<svg width="57" height="38" viewBox="0 0 57 38" fill="none" xmlns="http://www.w3.org/2000/svg">
<rect x="19" width="38" height="38" rx="19" fill="#DDDDDD"/>
<rect width="38" height="38" rx="19" fill="#15131B"/>
<path d="M18.9998 23.0125C19.675 23.0125 20.2223 22.4652 20.2223 21.79C20.2223 21.1148 19.675 20.5675 18.9998 20.5675C18.3247 20.5675 17.7773 21.1148 17.7773 21.79C17.7773 22.4652 18.3247 23.0125 18.9998 23.0125Z" fill="white"/>
<path d="M23.71 17.1475V16.21C23.71 14.185 23.2225 11.5 19 11.5C14.7775 11.5 14.29 14.185 14.29 16.21V17.1475C12.19 17.41 11.5 18.475 11.5 21.0925V22.4875C11.5 25.5625 12.4375 26.5 15.5125 26.5H22.4875C25.5625 26.5 26.5 25.5625 26.5 22.4875V21.0925C26.5 18.475 25.81 17.41 23.71 17.1475ZM19 24.055C17.7475 24.055 16.735 23.035 16.735 21.79C16.735 20.5375 17.755 19.525 19 19.525C20.245 19.525 21.265 20.545 21.265 21.79C21.265 23.0425 20.2525 24.055 19 24.055ZM15.5125 17.08C15.4525 17.08 15.4 17.08 15.34 17.08V16.21C15.34 14.0125 15.9625 12.55 19 12.55C22.0375 12.55 22.66 14.0125 22.66 16.21V17.0875C22.6 17.0875 22.5475 17.0875 22.4875 17.0875H15.5125V17.08Z" fill="white"/>
</svg>
