<svg width="57" height="38" viewBox="0 0 57 38" fill="none" xmlns="http://www.w3.org/2000/svg">
<rect x="19" width="38" height="38" rx="19" fill="#DDDDDD"/>
<rect width="38" height="38" rx="19" fill="#15131B"/>
<path d="M24.3777 14.98C24.0552 13.3525 22.8477 12.64 21.1677 12.64H14.5827C12.6027 12.64 11.2827 13.63 11.2827 15.94V19.8025C11.2827 21.4675 11.9652 22.4425 13.0902 22.8625C13.2552 22.9225 13.4352 22.975 13.6227 23.005C13.9227 23.0725 14.2452 23.1025 14.5827 23.1025H21.1752C23.1552 23.1025 24.4752 22.1125 24.4752 19.8025V15.94C24.4752 15.5875 24.4452 15.2725 24.3777 14.98ZM14.1477 19C14.1477 19.3075 13.8927 19.5625 13.5852 19.5625C13.2777 19.5625 13.0227 19.3075 13.0227 19V16.75C13.0227 16.4425 13.2777 16.1875 13.5852 16.1875C13.8927 16.1875 14.1477 16.4425 14.1477 16.75V19ZM17.8752 19.855C16.7802 19.855 15.8952 18.97 15.8952 17.875C15.8952 16.78 16.7802 15.895 17.8752 15.895C18.9702 15.895 19.8552 16.78 19.8552 17.875C19.8552 18.97 18.9702 19.855 17.8752 19.855ZM22.7202 19C22.7202 19.3075 22.4652 19.5625 22.1577 19.5625C21.8502 19.5625 21.5952 19.3075 21.5952 19V16.75C21.5952 16.4425 21.8502 16.1875 22.1577 16.1875C22.4652 16.1875 22.7202 16.4425 22.7202 16.75V19Z" fill="white"/>
<path d="M26.7248 18.19V22.0525C26.7248 24.3625 25.4048 25.36 23.4173 25.36H16.8323C16.2698 25.36 15.7673 25.2775 15.3323 25.1125C14.9798 24.985 14.6723 24.7975 14.4248 24.5575C14.2898 24.43 14.3948 24.2275 14.5823 24.2275H21.1673C23.9423 24.2275 25.5923 22.5775 25.5923 19.81V15.94C25.5923 15.76 25.7948 15.6475 25.9223 15.7825C26.4323 16.3225 26.7248 17.11 26.7248 18.19Z" fill="white"/>
</svg>
