<svg width="38" height="38" viewBox="0 0 38 38" fill="none" xmlns="http://www.w3.org/2000/svg">
<path d="M16.625 33.25C17.9367 33.25 19 34.3133 19 35.625C19 36.9367 20.0633 38 21.375 38H32C35.3137 38 38 35.3137 38 32V19V9.5C38 6.87665 35.8734 4.75 33.25 4.75H21.375C20.0633 4.75 19 3.68668 19 2.375C19 1.06332 17.9367 0 16.625 0H6C2.68629 0 0 2.68629 0 6V19V28.5C0 31.1234 2.12665 33.25 4.75 33.25H16.625Z" fill="#15131B"/>
<path d="M26.17 18.055L25.1575 16.87C24.97 16.645 24.8125 16.225 24.8125 15.925V14.65C24.8125 13.855 24.16 13.2025 23.365 13.2025H22.09C21.79 13.2025 21.3625 13.045 21.1375 12.8575L19.9525 11.845C19.435 11.4025 18.5875 11.4025 18.07 11.845L16.87 12.8575C16.645 13.045 16.225 13.2025 15.925 13.2025H14.6275C13.8325 13.2025 13.18 13.855 13.18 14.65V15.925C13.18 16.2175 13.03 16.6375 12.8425 16.8625L11.83 18.055C11.395 18.58 11.395 19.42 11.83 19.93L12.8425 21.1225C13.03 21.34 13.18 21.7675 13.18 22.06V23.3425C13.18 24.1375 13.8325 24.79 14.6275 24.79H15.9325C16.225 24.79 16.6525 24.9475 16.8775 25.135L18.0625 26.1475C18.58 26.59 19.4275 26.59 19.945 26.1475L21.13 25.135C21.355 24.9475 21.775 24.79 22.075 24.79H23.35C24.145 24.79 24.7975 24.1375 24.7975 23.3425V22.0675C24.7975 21.7675 24.955 21.3475 25.1425 21.1225L26.155 19.9375C26.6125 19.4275 26.6125 18.58 26.17 18.055ZM18.4375 16.0975C18.4375 15.79 18.6925 15.535 19 15.535C19.3075 15.535 19.5625 15.79 19.5625 16.0975V19.72C19.5625 20.0275 19.3075 20.2825 19 20.2825C18.6925 20.2825 18.4375 20.0275 18.4375 19.72V16.0975ZM19 22.6525C18.5875 22.6525 18.25 22.315 18.25 21.9025C18.25 21.49 18.58 21.1525 19 21.1525C19.4125 21.1525 19.75 21.49 19.75 21.9025C19.75 22.315 19.42 22.6525 19 22.6525Z" fill="white"/>
</svg>
