<svg width="32" height="32" viewBox="0 0 32 32" fill="none" xmlns="http://www.w3.org/2000/svg">
<path d="M6.97128 15.7848C11.8798 13.6075 15.1529 12.1721 16.7906 11.4786C21.4666 9.49842 22.4383 9.15445 23.0716 9.14297C23.2108 9.14059 23.5223 9.17573 23.724 9.34239C23.8944 9.48312 23.9412 9.67322 23.9637 9.80664C23.9861 9.94006 24.014 10.244 23.9918 10.4815C23.7384 13.1922 22.642 19.7703 22.0842 22.8063C21.8482 24.0909 21.3834 24.5216 20.9335 24.5638C19.9557 24.6554 19.2132 23.9059 18.2662 23.2738C16.7842 22.2848 15.947 21.6691 14.5086 20.704C12.8461 19.5887 13.9238 18.9757 14.8712 17.9738C15.1192 17.7116 19.4273 13.722 19.5107 13.3601C19.5212 13.3148 19.5308 13.1461 19.4324 13.057C19.3339 12.9679 19.1886 12.9984 19.0838 13.0226C18.9351 13.057 16.5677 14.6501 11.9815 17.802C11.3096 18.2718 10.7009 18.5007 10.1556 18.4887C9.55437 18.4754 8.39791 18.1426 7.53821 17.8581C6.48375 17.5091 5.64569 17.3246 5.71866 16.7319C5.75667 16.4232 6.17421 16.1075 6.97128 15.7848Z" fill="#FAFAFA"/>
</svg>
